<svg width="4082" height="4082" viewBox="0 0 4082 4082" fill="none" xmlns="http://www.w3.org/2000/svg">
<g clip-path="url(#clip0_1520_39263)">
<path d="M0 3.98438H4078.02V4082H0V3.98438Z" fill="white"/>
<path d="M3365.16 832.329L3197.9 784.54L3365.16 740.733L3412.95 569.488L3456.76 740.733L3628 784.54L3456.76 832.329L3412.95 999.592L3365.16 832.329ZM418.157 2859.39L290.719 2831.51L418.157 2799.65L450.016 2672.22L477.893 2799.65L609.314 2831.51L477.893 2859.39L450.016 2990.81L418.157 2859.39ZM3520.48 1043.4L3460.74 1031.45L3520.48 1015.52L3532.42 959.767L3544.37 1015.52L3604.11 1031.45L3544.37 1043.4L3532.42 1103.14L3520.48 1043.4ZM438.069 2170.43L378.332 2158.48L438.069 2146.53L450.016 2086.8L461.964 2146.53L521.7 2158.48L461.964 2170.43L450.016 2230.17L438.069 2170.43Z" fill="#FDCD60"/>
<path d="M2863.44 783.841L2696.18 736.052L2863.44 692.245L2911.23 521L2955.04 692.245L3126.28 736.052L2955.04 783.841L2911.23 951.103L2863.44 783.841ZM-83.562 2810.9L-211 2783.03L-83.562 2751.17L-51.7024 2623.73L-23.8254 2751.17L107.595 2783.03L-23.8254 2810.9L-51.7024 2942.32L-83.562 2810.9ZM3018.76 994.91L2959.02 982.963L3018.76 967.033L3030.71 911.279L3042.65 967.033L3102.39 982.963L3042.65 994.91L3030.71 1054.65L3018.76 994.91ZM-63.6497 2121.94L-123.386 2109.99L-63.6497 2098.05L-51.7024 2038.31L-39.7551 2098.05L19.9815 2109.99L-39.7551 2121.94L-51.7024 2181.68L-63.6497 2121.94Z" fill="#FDCD60"/>
<path d="M422.141 1389.87C422.139 1394.58 423.065 1399.24 424.866 1403.59C426.666 1407.94 429.306 1411.89 432.634 1415.22C435.963 1418.55 439.914 1421.19 444.264 1422.99C448.613 1424.8 453.275 1425.72 457.983 1425.72C462.69 1425.72 467.352 1424.8 471.701 1422.99C476.051 1421.19 480.003 1418.55 483.331 1415.22C486.659 1411.89 489.299 1407.94 491.1 1403.59C492.9 1399.24 493.826 1394.58 493.825 1389.87C493.826 1385.16 492.9 1380.5 491.1 1376.15C489.299 1371.8 486.659 1367.85 483.331 1364.52C480.003 1361.19 476.051 1358.55 471.701 1356.75C467.352 1354.94 462.69 1354.02 457.983 1354.02C453.275 1354.02 448.613 1354.94 444.264 1356.75C439.914 1358.55 435.963 1361.19 432.634 1364.52C429.306 1367.85 426.666 1371.8 424.866 1376.15C423.065 1380.5 422.139 1385.16 422.141 1389.87Z" fill="#5546CB"/>
<path d="M3628.01 2835.5C3608.32 2835.5 3589.07 2829.66 3572.69 2818.72C3556.32 2807.78 3543.56 2792.23 3536.02 2774.04C3528.49 2755.84 3526.52 2735.83 3530.36 2716.51C3534.2 2697.2 3543.68 2679.46 3557.61 2665.54C3571.53 2651.61 3589.27 2642.13 3608.58 2638.29C3627.9 2634.45 3647.91 2636.42 3666.11 2643.95C3684.3 2651.49 3699.85 2664.25 3710.79 2680.62C3721.73 2697 3727.57 2716.24 3727.57 2735.94C3727.57 2762.34 3717.08 2787.66 3698.41 2806.34C3679.74 2825.01 3654.41 2835.5 3628.01 2835.5ZM3628.01 2692.13C3628.53 2681.75 3633.08 2671.99 3640.7 2664.92C3648.31 2657.86 3658.39 2654.05 3668.78 2654.31C3679.16 2654.57 3689.04 2658.88 3696.29 2666.31C3703.55 2673.75 3707.61 2683.73 3707.61 2694.12C3707.61 2704.51 3703.55 2714.49 3696.29 2721.93C3689.04 2729.36 3679.16 2733.67 3668.78 2733.93C3658.39 2734.19 3648.31 2730.38 3640.7 2723.32C3633.08 2716.25 3628.53 2706.49 3628.01 2696.11V2692.13Z" fill="#5546CB"/>
<path d="M2496.99 1871.75H2775.76V2687.55H2496.99V1871.75Z" fill="#FDCD60"/>
<path d="M760.648 2927.09H3329.32V3066.48H760.648V2927.09Z" fill="#AFBCF3"/>
<path d="M3408.97 2847.45H681V3146.13H3408.97V2847.45ZM3329.32 3066.48H760.649V2927.09H3329.32V3066.48Z" fill="#5546CB"/>
<path d="M601.352 3337.29H3480.66V3476.67H601.352V3337.29Z" fill="#AFBCF3"/>
<path d="M509.758 3257.64V3556.32H3568.27V3257.64H509.758ZM3480.66 3476.67H601.354V3337.29H3480.66V3476.67Z" fill="#5546CB"/>
<path d="M1943.44 1927.5H2142.56V2656.29H1943.44V1927.5Z" fill="#FDCD60"/>
<path d="M1863.79 2735.94H2222.21V1847.85H1863.79V2735.94ZM1943.44 1927.5H2142.56V2656.29H1943.44V1927.5Z" fill="#5546CB"/>
<path d="M760.648 1489.43H959.77V1652.71H760.648V1489.43Z" fill="#FF8859"/>
<path d="M1039.42 1409.79H681V1732.36H1039.42V1409.79ZM959.771 1652.71H760.649V1489.43H959.771V1652.71Z" fill="#5546CB"/>
<path d="M3126.22 1489.43H3325.34V1652.71H3126.22V1489.43Z" fill="#FF8859"/>
<path d="M3404.99 1409.79H3046.57V1732.36H3404.99V1409.79ZM3325.34 1652.71H3126.22V1489.43H3325.34V1652.71Z" fill="#5546CB"/>
<path d="M2536.82 1489.43H2735.94V1652.71H2536.82V1489.43Z" fill="#FF8859"/>
<path d="M2815.59 1409.79H2457.17V1732.36H2815.59V1409.79ZM2735.94 1652.71H2536.82V1489.43H2735.94V1652.71Z" fill="#5546CB"/>
<path d="M1943.44 1489.43H2142.56V1652.71H1943.44V1489.43Z" fill="#FF8859"/>
<path d="M2222.21 1409.79H1863.79V1732.36H2222.21V1409.79ZM2142.56 1652.71H1943.44V1489.43H2142.56V1652.71Z" fill="#5546CB"/>
<path d="M2054.95 561.523L963.758 1218.63H3126.22L2054.95 561.523Z" fill="#FD6060"/>
<path d="M2054.94 465.945L681 1298.28H3404.99L2054.94 465.945ZM2054.94 561.524L3126.22 1218.63H963.753L2054.94 561.524ZM2453.19 2743.9H2811.6V1855.82H2453.19V2743.9ZM2532.83 1935.47H2731.96V2664.25H2532.83V1935.47Z" fill="#5546CB"/>
<path d="M3122.23 1935.46H3321.36V2664.25H3122.23V1935.46Z" fill="#FDCD60"/>
<path d="M3042.59 2743.9H3401.01V1855.82H3042.59V2743.9ZM3122.23 1935.47H3321.36V2664.25H3122.23V1935.47Z" fill="#5546CB"/>
<path d="M756.664 2656.29H955.786V1919.54H760.646L756.664 2656.29Z" fill="#FDCD60"/>
<path d="M1039.42 1839.89H681V2735.94H1035.44L1039.42 1839.89ZM955.788 2656.29H756.666V1919.54H951.806L955.788 2656.29Z" fill="#5546CB"/>
</g>
<defs>
<clipPath id="clip0_1520_39263">
<rect width="4082" height="4082" fill="white"/>
</clipPath>
</defs>
</svg>
